<svg width="1835" height="1065" viewBox="0 0 1835 1065" fill="none" xmlns="http://www.w3.org/2000/svg">
<g clip-path="url(#clip0_11_57)">
<rect width="1835" height="1065" fill="url(#paint0_linear_11_57)"/>
<circle cx="243" cy="-30" r="301" fill="url(#paint1_linear_11_57)"/>
<circle cx="1730" cy="1172" r="487" fill="url(#paint2_linear_11_57)"/>
<circle cx="1131" cy="315" r="143" fill="url(#paint3_linear_11_57)"/>
<circle cx="1761.5" cy="31.5" r="96.5" fill="url(#paint4_linear_11_57)"/>
<circle cx="962.5" cy="840.5" r="124.5" fill="url(#paint5_linear_11_57)"/>
<circle cx="1496" cy="128" r="60" fill="url(#paint6_linear_11_57)"/>
<path d="M1736 372C1736 443.797 1678.02 502 1606.5 502C1534.98 502 1477 443.797 1477 372C1477 300.203 1534.98 242 1606.5 242C1678.02 242 1736 300.203 1736 372Z" fill="url(#paint7_linear_11_57)"/>
<circle cx="1289" cy="607" r="46" fill="url(#paint8_linear_11_57)"/>
<circle cx="414" cy="748" r="90" fill="url(#paint9_linear_11_57)"/>
<circle cx="146" cy="568" r="55" fill="url(#paint10_linear_11_57)"/>
<circle cx="1061" cy="21" r="84" fill="url(#paint11_linear_11_57)"/>
<circle cx="781" cy="143" r="57" fill="url(#paint12_linear_11_57)"/>
<circle cx="528" cy="1083" r="37" fill="url(#paint13_linear_11_57)"/>
<circle cx="491.5" cy="439.5" r="124.5" fill="url(#paint14_linear_11_57)"/>
<circle cx="27" cy="1046" r="125" fill="url(#paint15_linear_11_57)"/>
<circle cx="476.5" cy="326.5" r="45.5" fill="white"/>
<circle cx="379.5" cy="701.5" r="26.5" fill="white"/>
<circle cx="62" cy="920" r="82" fill="white"/>
<circle cx="1657.26" cy="450.255" r="63.8952" transform="rotate(15 1657.26 450.255)" fill="white"/>
<circle cx="1124" cy="-15" r="82" fill="white"/>
</g>
<defs>
<linearGradient id="paint0_linear_11_57" x1="917.5" y1="1.23239e-06" x2="917.5" y2="1065" gradientUnits="userSpaceOnUse">
<stop stop-color="white"/>
<stop offset="0.828125" stop-color="white"/>
</linearGradient>
<linearGradient id="paint1_linear_11_57" x1="243" y1="-331" x2="243" y2="271" gradientUnits="userSpaceOnUse">
<stop stop-color="#009EF7"/>
<stop offset="1" stop-color="#009EF7" stop-opacity="0.74"/>
</linearGradient>
<linearGradient id="paint2_linear_11_57" x1="1730" y1="685" x2="1730" y2="1659" gradientUnits="userSpaceOnUse">
<stop stop-color="#009EF7"/>
<stop offset="1" stop-color="#009EF7" stop-opacity="0.74"/>
</linearGradient>
<linearGradient id="paint3_linear_11_57" x1="1131" y1="172" x2="1131" y2="458" gradientUnits="userSpaceOnUse">
<stop stop-color="#009EF7"/>
<stop offset="1" stop-color="#009EF7" stop-opacity="0.74"/>
</linearGradient>
<linearGradient id="paint4_linear_11_57" x1="1761.5" y1="-65" x2="1761.5" y2="128" gradientUnits="userSpaceOnUse">
<stop stop-color="#009EF7"/>
<stop offset="1" stop-color="#009EF7" stop-opacity="0.74"/>
</linearGradient>
<linearGradient id="paint5_linear_11_57" x1="962.5" y1="716" x2="962.5" y2="965" gradientUnits="userSpaceOnUse">
<stop stop-color="#009EF7"/>
<stop offset="1" stop-color="#009EF7" stop-opacity="0.74"/>
</linearGradient>
<linearGradient id="paint6_linear_11_57" x1="1496" y1="68" x2="1496" y2="188" gradientUnits="userSpaceOnUse">
<stop stop-color="#009EF7"/>
<stop offset="1" stop-color="#009EF7" stop-opacity="0.74"/>
</linearGradient>
<linearGradient id="paint7_linear_11_57" x1="1518.01" y1="-437.25" x2="1518.01" y2="-177.25" gradientUnits="userSpaceOnUse">
<stop stop-color="#009EF7"/>
<stop offset="1" stop-color="#009EF7" stop-opacity="0.74"/>
</linearGradient>
<linearGradient id="paint8_linear_11_57" x1="1289" y1="561" x2="1289" y2="653" gradientUnits="userSpaceOnUse">
<stop stop-color="#009EF7"/>
<stop offset="1" stop-color="#009EF7" stop-opacity="0.74"/>
</linearGradient>
<linearGradient id="paint9_linear_11_57" x1="414" y1="658" x2="414" y2="838" gradientUnits="userSpaceOnUse">
<stop stop-color="#009EF7"/>
<stop offset="1" stop-color="#009EF7" stop-opacity="0.74"/>
</linearGradient>
<linearGradient id="paint10_linear_11_57" x1="146" y1="513" x2="146" y2="623" gradientUnits="userSpaceOnUse">
<stop stop-color="#009EF7"/>
<stop offset="1" stop-color="#009EF7" stop-opacity="0.74"/>
</linearGradient>
<linearGradient id="paint11_linear_11_57" x1="1061" y1="-63" x2="1061" y2="105" gradientUnits="userSpaceOnUse">
<stop stop-color="#009EF7"/>
<stop offset="1" stop-color="#009EF7" stop-opacity="0.74"/>
</linearGradient>
<linearGradient id="paint12_linear_11_57" x1="781" y1="86" x2="781" y2="200" gradientUnits="userSpaceOnUse">
<stop stop-color="#009EF7"/>
<stop offset="1" stop-color="#009EF7" stop-opacity="0.74"/>
</linearGradient>
<linearGradient id="paint13_linear_11_57" x1="528" y1="1046" x2="528" y2="1120" gradientUnits="userSpaceOnUse">
<stop stop-color="#009EF7"/>
<stop offset="1" stop-color="#009EF7" stop-opacity="0.74"/>
</linearGradient>
<linearGradient id="paint14_linear_11_57" x1="491.5" y1="315" x2="491.5" y2="564" gradientUnits="userSpaceOnUse">
<stop stop-color="#009EF7"/>
<stop offset="1" stop-color="#009EF7" stop-opacity="0.74"/>
</linearGradient>
<linearGradient id="paint15_linear_11_57" x1="27" y1="921" x2="27" y2="1171" gradientUnits="userSpaceOnUse">
<stop stop-color="#009EF7"/>
<stop offset="1" stop-color="#009EF7" stop-opacity="0.74"/>
</linearGradient>
<clipPath id="clip0_11_57">
<rect width="1835" height="1065" fill="white"/>
</clipPath>
</defs>
</svg>
